<svg width="254" height="158" viewBox="0 0 254 158" fill="none" xmlns="http://www.w3.org/2000/svg">
<path fill-rule="evenodd" clip-rule="evenodd" d="M127.8 0H210.491C213.133 0 215.279 2.12791 215.279 4.7472V46.3238C215.279 48.9498 213.133 51.0753 210.491 51.0753H181.413V70.7037L155.946 51.0753H127.8C125.155 51.0753 123.012 48.9498 123.012 46.3238V4.7472C123.012 2.12791 125.155 0 127.8 0Z" fill="#E7E9E9"/>
<path fill-rule="evenodd" clip-rule="evenodd" d="M130.988 12.2963H48.6034C46.216 12.2963 44.2786 14.0338 44.2786 16.1777V62.3177C44.2786 64.4621 46.216 66.1959 48.6034 66.1959H74.6462V82.2352L97.6424 66.1959H130.988C133.378 66.1959 135.315 64.4621 135.315 62.3177V16.1777C135.315 14.0338 133.378 12.2963 130.988 12.2963Z" fill="#B7B1A9"/>
<path fill-rule="evenodd" clip-rule="evenodd" d="M122.65 139.827C124.258 139.827 125.56 138.513 125.56 136.892C125.56 135.271 124.258 133.958 122.65 133.958C121.813 133.958 121.065 134.319 120.534 134.889C120.044 135.414 119.74 136.115 119.74 136.892C119.74 137.496 119.921 138.056 120.232 138.523C120.753 139.309 121.641 139.827 122.65 139.827ZM122.39 128.838C126.747 128.838 130.279 132.401 130.279 136.794C130.279 141.188 126.747 144.749 122.39 144.749C121.463 144.749 120.578 144.58 119.751 144.283L118.61 158H95.1074L92.2786 124H121.441L121.027 128.965C121.471 128.886 121.924 128.838 122.39 128.838Z" fill="#BA3A26"/>
<path fill-rule="evenodd" clip-rule="evenodd" d="M97.2786 140.617L98.5622 137.583H99.7956L98.5136 140.617H97.2786Z" fill="white"/>
<path fill-rule="evenodd" clip-rule="evenodd" d="M113.118 140.617L114.385 137.583H115.058L113.791 140.617H113.118Z" fill="white"/>
<path fill-rule="evenodd" clip-rule="evenodd" d="M115.61 140.617L116.877 137.583H117.235L115.967 140.617H115.61Z" fill="white"/>
<path fill-rule="evenodd" clip-rule="evenodd" d="M111.952 137.583H110.836C110.836 137.583 110.759 137.583 110.732 137.648L110.114 139.454L109.496 137.648C109.469 137.583 109.392 137.583 109.392 137.583H107.245C107.199 137.583 107.16 137.62 107.16 137.664V138.278C107.16 137.791 106.618 137.583 106.3 137.583C105.589 137.583 105.113 138.03 104.965 138.71C104.957 138.259 104.918 138.098 104.791 137.932C104.732 137.851 104.648 137.783 104.556 137.726C104.366 137.621 104.196 137.583 103.831 137.583H103.402C103.402 137.583 103.324 137.583 103.297 137.648L102.907 138.572V137.664C102.907 137.62 102.868 137.583 102.821 137.583H101.829C101.829 137.583 101.752 137.583 101.724 137.648L101.318 138.609C101.318 138.609 101.278 138.705 101.37 138.705H101.752V140.536C101.752 140.581 101.789 140.617 101.837 140.617H102.821C102.868 140.617 102.907 140.581 102.907 140.536V138.705H103.29C103.51 138.705 103.557 138.711 103.643 138.749C103.694 138.767 103.741 138.805 103.766 138.848C103.818 138.942 103.831 139.054 103.831 139.384V140.536C103.831 140.581 103.869 140.617 103.916 140.617H104.86C104.86 140.617 104.966 140.617 105.008 140.517L105.218 140.023C105.496 140.395 105.953 140.617 106.522 140.617H106.646C106.646 140.617 106.753 140.617 106.796 140.517L107.16 139.655V140.536C107.16 140.581 107.199 140.617 107.245 140.617H108.208C108.208 140.617 108.314 140.617 108.357 140.517C108.357 140.517 108.742 139.603 108.744 139.597H108.744C108.759 139.521 108.659 139.521 108.659 139.521H108.315V137.954L109.396 140.517C109.439 140.617 109.545 140.617 109.545 140.617H110.683C110.683 140.617 110.79 140.617 110.832 140.517L112.031 137.681C112.072 137.583 111.952 137.583 111.952 137.583ZM107.16 139.521H106.513C106.255 139.521 106.046 139.321 106.046 139.075C106.046 138.83 106.255 138.629 106.513 138.629H106.694C106.951 138.629 107.16 138.83 107.16 139.075V139.521ZM106.595 143.996C103.127 143.996 100.316 141.311 100.316 137.998C100.316 134.686 103.127 132 106.595 132C110.064 132 112.876 134.686 112.876 137.998C112.876 141.311 110.064 143.996 106.595 143.996Z" fill="white"/>
<path fill-rule="evenodd" clip-rule="evenodd" d="M176.769 83H129.787C127.848 83 126.279 84.5869 126.279 86.5475V146.454C126.279 146.819 126.334 147.175 126.436 147.506C126.607 148.063 126.911 148.559 127.309 148.962C127.386 149.038 127.47 149.118 127.559 149.189C128.076 149.623 128.722 149.906 129.427 149.981C129.547 149.993 129.667 150 129.787 150H176.769C178.708 150 180.279 148.411 180.279 146.454V86.5475C180.279 84.5869 178.708 83 176.769 83Z" fill="#59514B"/>
<path fill-rule="evenodd" clip-rule="evenodd" d="M131.279 97.7714V142.12C131.279 143.71 132.529 145 134.073 145H171.486C173.028 145 174.279 143.71 174.279 142.12V90.8805C174.279 89.2897 173.028 88 171.486 88H141.63L131.279 97.7714Z" fill="white"/>
<path fill-rule="evenodd" clip-rule="evenodd" d="M141.63 88V94.8052C141.63 96.4437 140.299 97.7714 138.656 97.7714H131.279L141.63 88Z" fill="#C6C2BF"/>
<path fill-rule="evenodd" clip-rule="evenodd" d="M146.408 109.986H164.723V108.357H146.408V109.986Z" fill="#B7B1A9"/>
<path fill-rule="evenodd" clip-rule="evenodd" d="M146.408 115.686H164.723V114.057H146.408V115.686Z" fill="#B7B1A9"/>
<path fill-rule="evenodd" clip-rule="evenodd" d="M146.408 120.571H164.723V118.943H146.408V120.571Z" fill="#B7B1A9"/>
<path fill-rule="evenodd" clip-rule="evenodd" d="M146.408 126.271H164.723V124.643H146.408V126.271Z" fill="#B7B1A9"/>
<path fill-rule="evenodd" clip-rule="evenodd" d="M144.816 106.732H143.973H141.677H140.834V107.622V109.915V110.804H141.677H143.973H144.816V109.915V107.622V106.732ZM141.677 109.914H143.973V107.622H141.677V109.914Z" fill="#B7B1A9"/>
<path fill-rule="evenodd" clip-rule="evenodd" d="M144.816 112.295H143.973H141.677H140.834V113.185V115.477V116.367H141.677H143.973H144.816V115.477V113.185V112.295ZM141.677 115.477H143.973V113.185H141.677V115.477Z" fill="#B7B1A9"/>
<path fill-rule="evenodd" clip-rule="evenodd" d="M144.816 117.858H143.973H141.677H140.834V118.748V121.04V121.929H141.677H143.973H144.816V121.04V118.748V117.858ZM141.677 121.04H143.973V118.748H141.677V121.04Z" fill="#B7B1A9"/>
<path fill-rule="evenodd" clip-rule="evenodd" d="M144.816 123.422H143.973H141.677H140.834V124.311V126.604V127.493H141.677H143.973H144.816V126.604V124.311V123.422ZM141.677 126.604H143.973V124.311H141.677V126.604Z" fill="#B7B1A9"/>
<path d="M142.063 108.17L143.832 105.1L144.816 106.124L142.121 110.8L140.038 107.598L140.974 106.497L142.063 108.17Z" fill="#3E3832"/>
<path d="M143.634 109.986L144.816 110.88L142.145 115.686L140.038 112.329L141.174 111.358L142.074 112.792L143.634 109.986Z" fill="#3E3832"/>
<path fill-rule="evenodd" clip-rule="evenodd" d="M153.78 85.2922C153.169 85.2922 152.674 84.7812 152.674 84.1471C152.674 83.513 153.169 82.999 153.78 82.999C154.388 82.999 154.885 83.513 154.885 84.1471C154.885 84.7812 154.388 85.2922 153.78 85.2922ZM160.606 80.6038H156.493V79.8152C156.493 78.2602 155.277 77 153.78 77C152.278 77 151.065 78.2602 151.065 79.8152V80.6038H146.952C144.924 80.6038 143.279 82.3113 143.279 84.4157V89H164.279V84.4157C164.279 82.3113 162.634 80.6038 160.606 80.6038Z" fill="#3E3832"/>
<path fill-rule="evenodd" clip-rule="evenodd" d="M54.2786 94.6939C54.2786 105.15 50.0044 111.134 45.0048 113.623V115.05L41.3165 135H27.9342L24.7976 115.05V112.198C24.2539 111.823 23.7287 111.397 23.2205 110.915C20.903 108.716 19.414 105.977 18.4976 102.795C17.1946 102.448 15.5358 101.514 14.2786 99C13.2786 97 13.2786 96 13.2786 95C13.2786 94 14.0223 92.6311 15.2786 92C15.5712 91.853 15.8902 91.7202 16.2075 91.603C16.2074 91.5724 16.2074 91.5416 16.2074 91.5106L16.2072 91.0243C16.2054 85.8645 16.2038 81.0945 18.0462 77.1884C20.9571 71.0171 27.1034 67 34.493 67C43.8627 67 49.5398 72.4464 52.2748 80.2766C53.7667 84.5479 54.2786 88.4468 54.2786 94.6939Z" fill="#E7E9E9"/>
<path fill-rule="evenodd" clip-rule="evenodd" d="M24.2786 114C24.2786 118.82 28.7557 124 34.2786 124C39.8014 124 44.2786 118.82 44.2786 114C44.6936 114 50.5753 116.241 55.0485 120.733C58.5191 124.219 61.2786 129.458 61.2786 133.523V158H19.2786C12.6511 158 7.27856 152.627 7.27856 146V133.523C7.27856 129.45 10.0976 124.202 13.6323 120.712C18.1718 116.23 23.7634 114 24.2786 114Z" fill="#06893A"/>
<path fill-rule="evenodd" clip-rule="evenodd" d="M33.1269 63.0581C41.7148 62.5509 48.689 65.2507 52.5967 75.6687C52.5967 75.6687 53.8 76.0172 54.8407 79.4204C55.8814 82.8236 54.8732 87.0501 53.8325 86.4461C52.7918 85.3538 46.1919 82.6046 34.437 84.4649C22.6811 86.3263 15.3274 93 15.3274 93C14.2867 93 13.2786 90.1688 13.2786 86.4461C13.2786 82.7234 14.2867 81.8166 14.2867 81.8166C15.1664 70.9807 20.1127 65.8498 27.2791 63.9383C27.307 62.48 28.3973 61.2219 29.8866 61.0259C31.3391 60.835 32.6846 61.7165 33.1269 63.0581Z" fill="#3E3832"/>
<path d="M36.3487 103.502C36.3751 103.566 36.4423 103.696 36.556 103.87C36.7504 104.167 37.0028 104.466 37.3181 104.745C38.4293 105.728 40.0089 106.22 42.1941 105.951C43.2793 105.817 44.045 105.339 44.5698 104.609C44.7926 104.299 44.9562 103.964 45.0683 103.629C45.1346 103.431 45.1683 103.281 45.179 103.205C45.217 102.938 45.493 102.748 45.7954 102.782C46.0979 102.815 46.3122 103.059 46.2742 103.327C46.2079 103.794 45.9848 104.461 45.501 105.133C44.8109 106.093 43.7709 106.743 42.3462 106.918C39.8121 107.23 37.8894 106.631 36.5378 105.436C35.872 104.847 35.4851 104.255 35.3125 103.838C35.2075 103.585 35.3544 103.305 35.6405 103.212C35.9267 103.119 36.2438 103.249 36.3487 103.502Z" fill="#3E3832"/>
<path fill-rule="evenodd" clip-rule="evenodd" d="M48.3972 93.2319C47.1524 93.6234 46.2527 91.426 46.2791 89.8575C46.2837 89.56 46.3976 88.1873 47.1432 88.0265C47.8875 87.8646 48.3834 88.4935 48.4582 88.6051C49.3532 89.9341 49.7582 92.802 48.3972 93.2319Z" fill="#3E3832"/>
<path fill-rule="evenodd" clip-rule="evenodd" d="M34.3543 89.7022C34.4105 89.4105 34.7628 88.0765 35.5674 88.0053C36.3731 87.934 36.7836 88.6091 36.8418 88.7268C37.5495 90.1364 37.4852 92.9977 35.9912 93.2602C34.6259 93.5 34.0602 91.2371 34.3543 89.7022Z" fill="#3E3832"/>
<path d="M44.4346 94.1288C44.5531 94.2392 44.6784 94.334 44.8097 94.4136C45.321 94.7237 45.8517 94.7811 46.3393 94.6974C46.4105 94.6852 46.469 94.6718 46.4504 94.6734C47.2113 94.5633 47.7262 94.648 47.9149 94.8878C48.6559 95.8297 48.4189 96.8272 47.1475 97.6469C46.4793 98.0771 45.5593 98.2286 45.0722 98.0054C44.834 97.8963 44.5555 98.0077 44.4501 98.2543C44.3447 98.5008 44.4523 98.7892 44.6905 98.8983C45.4955 99.2671 46.7334 99.0633 47.6458 98.4759C49.3734 97.362 49.7688 95.6982 48.6462 94.2711C48.1854 93.6857 47.3791 93.5531 46.3198 93.7064C46.2445 93.7224 46.218 93.7285 46.185 93.7341C45.8961 93.7837 45.5807 93.7496 45.2865 93.5711C45.2101 93.5248 45.1365 93.4691 45.0657 93.4031C44.8721 93.2227 44.5739 93.239 44.3997 93.4393C44.2254 93.6397 44.2411 93.9484 44.4346 94.1288Z" fill="#3E3832"/>
<path fill-rule="evenodd" clip-rule="evenodd" d="M45.7458 100.667C44.3306 100.238 43.8265 100.085 41.5769 100.085C39.7341 100.085 38.5593 100.459 37.0102 100.951C36.1221 101.234 35.1111 101.555 33.7807 101.868C21.5445 104.482 18.8069 97.063 17.76 94.226C17.5526 93.6639 17.4116 93.2816 17.2762 93.193C16.6015 93.193 16.2478 94.1796 16.2807 95.0015C16.6015 103.022 20.2786 111 26.2786 114C26.9245 114.268 27.5032 114.518 28.0396 114.749C31.5639 116.268 33.2605 117 40.1724 117C44.153 117 48.933 112.623 51.1228 109C53.5929 104.914 54.7369 99.8077 54.1092 92C54.0702 92.2114 54.029 92.4541 53.9837 92.7214C53.4462 95.8918 52.3235 102.513 47.2638 101.111C46.6391 100.938 46.1544 100.791 45.7458 100.667ZM41.907 102C45.9115 102 48.2786 103.183 48.2786 104.981C48.2786 106.778 45.9115 109.968 41.907 109.968C36.7401 110.332 33.2786 107.516 33.2786 105.745C33.2786 103.974 37.9025 102 41.907 102Z" fill="#8B5C1E"/>
<path fill-rule="evenodd" clip-rule="evenodd" d="M199.279 98.1169C199.279 109.016 204.353 114.697 209.764 116.81L209.796 117L210.279 122L212.929 139H226.174L228.279 122L228.649 117L229.069 115C229.483 114.698 229.886 114.366 230.279 114C232.386 112.039 233.807 109.638 234.734 106.872C236.077 106.596 237.914 105.729 239.279 103C240.279 101 240.279 100 240.279 99C240.279 98 239.535 96.6312 238.279 96C237.963 95.8413 237.616 95.6992 237.274 95.5753C237.277 95.3925 237.279 95.2009 237.279 95L237.279 94.5239C237.28 89.4715 237.282 84.8009 235.443 80.9762C232.538 74.9334 226.403 71 219.027 71C206.837 71 199.279 84.0325 199.279 98.1169Z" fill="#E7E9E9"/>
<path fill-rule="evenodd" clip-rule="evenodd" d="M228.538 116.809C228.538 121.321 224.392 126.17 219.279 126.17C214.165 126.17 210.019 121.321 210.019 116.809C209.635 116.809 204.189 118.906 200.047 123.112C196.834 126.375 194.279 131.28 194.279 135.085V158H233.167C239.304 158 244.279 152.97 244.279 146.766V135.085C244.279 131.272 241.668 126.359 238.395 123.092C234.192 118.897 229.015 116.809 228.538 116.809Z" fill="#0C5EA8"/>
<path fill-rule="evenodd" clip-rule="evenodd" d="M239.271 102C240.263 99 239.742 97 237.742 96L234.78 95.1448L234.279 94.9732C230.279 93.6357 223.18 89 219.18 86C216.514 84 214.465 82 213.034 80C210.449 81.6293 207.864 83.6293 205.279 86C202.694 88.3707 201.279 90 200.279 93C200.279 93 198.757 98.0552 199.779 103.5C199.779 103.5 197.279 101 197.279 93C197.279 77.3506 206.279 66 220.279 66C232.763 66 243.279 77.6874 243.279 93.3374C243.279 106.928 234.021 116.208 229.279 117.266C228.965 117.336 228.538 117.051 228.538 117.051V115C228.538 115 230.279 114 232.279 111C233.551 109.092 234.18 107.583 234.582 105.924C236.823 105.64 238.433 104.533 239.271 102Z" fill="#573830"/>
<path d="M219.208 107.686C219.182 107.746 219.115 107.869 219.001 108.034C218.807 108.316 218.554 108.599 218.239 108.864C217.128 109.794 215.548 110.261 213.363 110.006C212.278 109.88 211.512 109.426 210.987 108.735C210.765 108.441 210.601 108.124 210.489 107.807C210.422 107.619 210.389 107.476 210.378 107.405C210.34 107.151 210.064 106.972 209.762 107.004C209.459 107.036 209.245 107.267 209.283 107.52C209.349 107.962 209.572 108.594 210.056 109.232C210.746 110.141 211.786 110.757 213.211 110.922C215.745 111.218 217.668 110.65 219.019 109.518C219.685 108.96 220.072 108.399 220.245 108.005C220.35 107.765 220.203 107.499 219.917 107.411C219.63 107.323 219.313 107.446 219.208 107.686Z" fill="#3E3832"/>
<path fill-rule="evenodd" clip-rule="evenodd" d="M207.16 97.9565C208.405 98.3275 209.304 96.2457 209.278 94.7597C209.273 94.4779 209.159 93.1774 208.414 93.0251C207.67 92.8717 207.174 93.4675 207.099 93.5732C206.204 94.8323 205.799 97.5493 207.16 97.9565Z" fill="#3E3832"/>
<path fill-rule="evenodd" clip-rule="evenodd" d="M221.203 94.6126C221.147 94.3363 220.794 93.0725 219.99 93.005C219.184 92.9374 218.773 93.577 218.715 93.6885C218.008 95.0239 218.072 97.7347 219.566 97.9833C220.931 98.2105 221.497 96.0667 221.203 94.6126Z" fill="#3E3832"/>
<path d="M211.122 98.8063C211.004 98.9108 210.879 99.0006 210.747 99.0761C210.236 99.3698 209.705 99.4242 209.218 99.3449C209.147 99.3333 209.088 99.3206 209.107 99.3222C208.346 99.2179 207.831 99.2981 207.642 99.5253C206.901 100.418 207.138 101.363 208.41 102.139C209.078 102.547 209.998 102.69 210.485 102.479C210.723 102.375 211.002 102.481 211.107 102.715C211.212 102.948 211.105 103.221 210.867 103.325C210.062 103.674 208.824 103.481 207.911 102.925C206.184 101.869 205.788 100.293 206.911 98.941C207.372 98.3864 208.178 98.2609 209.237 98.4061C209.313 98.4212 209.339 98.427 209.372 98.4324C209.661 98.4793 209.976 98.447 210.271 98.2779C210.347 98.2341 210.421 98.1813 210.491 98.1188C210.685 97.9479 210.983 97.9632 211.157 98.1531C211.332 98.3429 211.316 98.6354 211.122 98.8063Z" fill="#3E3832"/>
<path fill-rule="evenodd" clip-rule="evenodd" d="M227.887 146H210.67C209.902 146 209.279 145.38 209.279 144.614V135.387C209.279 134.621 209.902 134 210.67 134H227.887C228.655 134 229.279 134.621 229.279 135.387V144.614C229.279 145.38 228.655 146 227.887 146Z" fill="#C30000"/>
<path fill-rule="evenodd" clip-rule="evenodd" d="M232.279 118.276L230.464 117L219.279 131L207.839 117L206.279 118.044L218.279 132.066V135H220.314L220.298 132.066L232.279 118.276Z" fill="#3E3832"/>
<path fill-rule="evenodd" clip-rule="evenodd" d="M213.279 141.745L214.096 139.722H214.881L214.065 141.745H213.279Z" fill="white"/>
<path fill-rule="evenodd" clip-rule="evenodd" d="M223.363 141.745L224.17 139.722H224.598L223.792 141.745H223.363Z" fill="white"/>
<path fill-rule="evenodd" clip-rule="evenodd" d="M224.95 141.745L225.757 139.722H225.984L225.177 141.745H224.95Z" fill="white"/>
<path fill-rule="evenodd" clip-rule="evenodd" d="M222.621 139.722H221.91C221.91 139.722 221.861 139.722 221.844 139.765L221.451 140.97L221.058 139.765C221.04 139.722 220.991 139.722 220.991 139.722H219.624C219.595 139.722 219.57 139.747 219.57 139.776V140.185C219.57 139.861 219.225 139.722 219.022 139.722C218.57 139.722 218.267 140.02 218.173 140.474C218.167 140.173 218.142 140.065 218.061 139.955C218.024 139.901 217.97 139.855 217.912 139.818C217.791 139.747 217.683 139.722 217.45 139.722H217.177C217.177 139.722 217.128 139.722 217.11 139.765L216.862 140.381V139.776C216.862 139.747 216.837 139.722 216.808 139.722H216.176C216.176 139.722 216.127 139.722 216.109 139.765L215.851 140.406C215.851 140.406 215.825 140.47 215.884 140.47H216.127V141.691C216.127 141.721 216.151 141.745 216.181 141.745H216.808C216.837 141.745 216.862 141.721 216.862 141.691V140.47H217.106C217.246 140.47 217.276 140.474 217.33 140.499C217.363 140.512 217.393 140.537 217.409 140.566C217.442 140.628 217.45 140.703 217.45 140.923V141.691C217.45 141.721 217.475 141.745 217.505 141.745H218.105C218.105 141.745 218.173 141.745 218.2 141.678L218.333 141.349C218.51 141.597 218.802 141.745 219.164 141.745H219.243C219.243 141.745 219.311 141.745 219.338 141.678L219.57 141.104V141.691C219.57 141.721 219.595 141.745 219.624 141.745H220.237C220.237 141.745 220.305 141.745 220.332 141.678C220.332 141.678 220.577 141.069 220.578 141.064H220.579C220.588 141.014 220.524 141.014 220.524 141.014H220.305V139.969L220.994 141.678C221.021 141.745 221.088 141.745 221.088 141.745H221.813C221.813 141.745 221.881 141.745 221.908 141.678L222.671 139.788C222.698 139.722 222.621 139.722 222.621 139.722ZM219.57 141.014H219.158C218.994 141.014 218.861 140.881 218.861 140.717C218.861 140.553 218.994 140.419 219.158 140.419H219.273C219.437 140.419 219.57 140.553 219.57 140.717V141.014ZM219.21 143.997C217.002 143.997 215.212 142.207 215.212 139.999C215.212 137.79 217.002 136 219.21 136C221.419 136 223.209 137.79 223.209 139.999C223.209 142.207 221.419 143.997 219.21 143.997Z" fill="white"/>
</svg>
