<svg width="24" height="39" viewBox="0 0 24 39" fill="none" xmlns="http://www.w3.org/2000/svg">
<rect width="24" height="39" rx="2" fill="#3E3832"/>
<rect x="2.40002" y="3.65625" width="19.2" height="8.53125" fill="#E7E9E9"/>
<rect x="14.4" y="8.53125" width="2.4" height="1.21875" fill="#3E3832"/>
<rect x="18" y="8.53125" width="2.4" height="1.21875" fill="#3E3832"/>
<path d="M4.80002 20.7188C6.12551 20.7188 7.20002 19.6274 7.20002 18.2812C7.20002 16.9351 6.12551 15.8438 4.80002 15.8438C3.47454 15.8438 2.40002 16.9351 2.40002 18.2812C2.40002 19.6274 3.47454 20.7188 4.80002 20.7188Z" fill="#E7E9E9"/>
<path d="M4.80002 28.0312C6.12551 28.0312 7.20002 26.9399 7.20002 25.5938C7.20002 24.2476 6.12551 23.1562 4.80002 23.1562C3.47454 23.1562 2.40002 24.2476 2.40002 25.5938C2.40002 26.9399 3.47454 28.0312 4.80002 28.0312Z" fill="#E7E9E9"/>
<path d="M4.80002 35.3438C6.12551 35.3438 7.20002 34.2524 7.20002 32.9062C7.20002 31.5601 6.12551 30.4688 4.80002 30.4688C3.47454 30.4688 2.40002 31.5601 2.40002 32.9062C2.40002 34.2524 3.47454 35.3438 4.80002 35.3438Z" fill="#E7E9E9"/>
<path d="M12 20.7188C13.3255 20.7188 14.4 19.6274 14.4 18.2812C14.4 16.9351 13.3255 15.8438 12 15.8438C10.6745 15.8438 9.59998 16.9351 9.59998 18.2812C9.59998 19.6274 10.6745 20.7188 12 20.7188Z" fill="#E7E9E9"/>
<path d="M12 28.0312C13.3255 28.0312 14.4 26.9399 14.4 25.5938C14.4 24.2476 13.3255 23.1562 12 23.1562C10.6745 23.1562 9.59998 24.2476 9.59998 25.5938C9.59998 26.9399 10.6745 28.0312 12 28.0312Z" fill="#E7E9E9"/>
<path d="M19.2 20.7188C20.5255 20.7188 21.6 19.6274 21.6 18.2812C21.6 16.9351 20.5255 15.8438 19.2 15.8438C17.8746 15.8438 16.8 16.9351 16.8 18.2812C16.8 19.6274 17.8746 20.7188 19.2 20.7188Z" fill="#FF9100"/>
<path d="M19.2 28.0312C20.5255 28.0312 21.6 26.9399 21.6 25.5938C21.6 24.2476 20.5255 23.1562 19.2 23.1562C17.8746 23.1562 16.8 24.2476 16.8 25.5938C16.8 26.9399 17.8746 28.0312 19.2 28.0312Z" fill="#E7E9E9"/>
<rect x="9.59998" y="30.4688" width="12" height="4.875" rx="2" fill="#E7E9E9"/>
</svg>
