<svg width="22" height="22" viewBox="0 0 22 22" fill="none" xmlns="http://www.w3.org/2000/svg">
<path fill-rule="evenodd" clip-rule="evenodd" d="M18.3333 1.83333H21.5417C21.7947 1.83333 22 2.03867 22 2.29167V6.41667H0V2.29167C0 2.03867 0.205333 1.83333 0.458333 1.83333H3.66667V0.458333C3.66667 0.205333 3.872 0 4.125 0H6.875C7.128 0 7.33333 0.205333 7.33333 0.458333V1.83333H14.6667V0.458333C14.6667 0.205333 14.872 0 15.125 0H17.875C18.128 0 18.3333 0.205333 18.3333 0.458333V1.83333ZM4.58333 3.66667H6.41667V0.916667H4.58333V3.66667ZM17.4167 3.66667H15.5833V0.916667H17.4167V3.66667ZM0.458333 22C0.205333 22 0 21.7947 0 21.5417V7.33333H22V21.5417C22 21.7947 21.7947 22 21.5417 22H0.458333ZM1.83333 14.2083C1.83333 14.4613 2.03867 14.6667 2.29167 14.6667H5.5V17.4167H2.29167C2.03867 17.4167 1.83333 17.622 1.83333 17.875C1.83333 18.128 2.03867 18.3333 2.29167 18.3333H5.5V19.7083C5.5 19.9613 5.70533 20.1667 5.95833 20.1667C6.21133 20.1667 6.41667 19.9613 6.41667 19.7083V18.3333H10.0833V19.7083C10.0833 19.9613 10.2887 20.1667 10.5417 20.1667C10.7947 20.1667 11 19.9613 11 19.7083V18.3333H14.6667V19.7083C14.6667 19.9613 14.872 20.1667 15.125 20.1667C15.378 20.1667 15.5833 19.9613 15.5833 19.7083V18.3333H19.7083C19.9613 18.3333 20.1667 18.128 20.1667 17.875C20.1667 17.622 19.9613 17.4167 19.7083 17.4167H15.5833V14.6667H19.7083C19.9613 14.6667 20.1667 14.4613 20.1667 14.2083C20.1667 13.9553 19.9613 13.75 19.7083 13.75H15.5833V11H19.7083C19.9613 11 20.1667 10.7947 20.1667 10.5417C20.1667 10.2887 19.9613 10.0833 19.7083 10.0833H15.5833V8.70833C15.5833 8.45533 15.378 8.25 15.125 8.25C14.872 8.25 14.6667 8.45533 14.6667 8.70833V10.0833H11V8.70833C11 8.45533 10.7947 8.25 10.5417 8.25C10.2887 8.25 10.0833 8.45533 10.0833 8.70833V10.0833H6.41667V8.70833C6.41667 8.45533 6.21133 8.25 5.95833 8.25C5.70533 8.25 5.5 8.45533 5.5 8.70833V10.0833H2.29167C2.03867 10.0833 1.83333 10.2887 1.83333 10.5417C1.83333 10.7947 2.03867 11 2.29167 11H5.5V13.75H2.29167C2.03867 13.75 1.83333 13.9553 1.83333 14.2083ZM11 11H14.6667V13.75H11V11ZM10.0833 14.6667H6.41667V17.4167H10.0833V14.6667ZM14.6667 14.6667H11V17.4167H14.6667V14.6667ZM10.0833 11H6.41667V13.75H10.0833V11Z" fill="#0067C5"/>
</svg>
