<svg width="22" height="22" viewBox="0 0 22 22" fill="none" xmlns="http://www.w3.org/2000/svg">
<path fill-rule="evenodd" clip-rule="evenodd" d="M17.4167 4.125V7.79167C17.4167 10.0659 15.565 11.9167 13.2917 11.9167H9.54617H9.35642L5.8245 15.4495C5.7365 15.5366 5.62008 15.5833 5.5 15.5833C5.44133 15.5833 5.38175 15.5714 5.32492 15.5485C5.15442 15.4779 5.04167 15.3102 5.04167 15.125V12.375V11.9167H4.58333H4.125C1.85167 11.9167 0 10.0659 0 7.79167V4.125C0 1.85075 1.85167 0 4.125 0H13.2917C15.565 0 17.4167 1.85075 17.4167 4.125ZM17.7769 10.0833H19.25C20.7662 10.0833 22 11.3172 22 12.8333V14.6667C22 16.1828 20.7662 17.4167 19.25 17.4167H18.3333V19.7083C18.3333 19.8935 18.2224 20.0613 18.0501 20.1318C17.9932 20.1548 17.9337 20.1667 17.875 20.1667C17.7549 20.1667 17.6385 20.1199 17.5514 20.0328L14.9353 17.4167H12.8333C11.3172 17.4167 10.0833 16.1828 10.0833 14.6667V12.8333H13.2917C15.2469 12.8333 16.9409 11.7132 17.7769 10.0833Z" fill="#0067C5"/>
</svg>
