<svg width="42" height="64" viewBox="0 0 42 64" fill="none" xmlns="http://www.w3.org/2000/svg">
<path fill-rule="evenodd" clip-rule="evenodd" d="M32.8314 30.4421C31.7719 33.868 29.6976 36.7117 27.0392 38.452L27.1754 39.9776L27.1746 40.0397L25.7376 52.6154H16.6237L16.5858 52.3512L14.8239 40.018L14.8892 38.4755C12.2174 36.7398 10.1314 33.8914 9.06577 30.4564C9.02964 30.4598 8.99303 30.4615 8.956 30.4615C8.26674 30.4615 7.7207 29.8614 7.7207 29.1343V25.0201C7.7207 24.5328 7.96604 24.1022 8.33538 23.8712C8.91162 16.1904 14.3252 10.1539 20.9461 10.1539C27.5492 10.1539 32.9518 16.1579 33.5526 23.8089C33.9839 24.0178 34.2795 24.4845 34.2795 25.0201V29.1343C34.2795 29.8617 33.7343 30.4615 33.0442 30.4615C32.9715 30.4615 32.9004 30.4549 32.8314 30.4421Z" fill="#E7E9E9"/>
<path fill-rule="evenodd" clip-rule="evenodd" d="M26.7179 38.8777C26.6661 41.624 24.1258 44.4415 20.9998 44.4415C17.8601 44.4415 15.3114 41.5994 15.2811 38.8419C13.6543 39.2527 11.1711 40.4917 9.12153 42.5623C7.13675 44.5674 5.55859 47.5814 5.55859 49.9195V64H36.441V49.9195C36.441 47.5766 34.8288 44.5575 32.8073 42.5501C30.7858 40.5427 28.3551 39.3205 26.7179 38.8777Z" fill="#0C5EA8"/>
<path fill-rule="evenodd" clip-rule="evenodd" d="M15.1787 38.9372C13.6802 39.4793 11.1664 40.664 9.26476 42.4632C3.70594 41.2308 1.23535 38.3022 1.23535 38.3022C1.23535 38.3022 6.35679 33.3249 6.35988 24.6197V24.6105C6.35988 14.4172 11.8831 7.38463 20.9828 7.38463C30.0836 7.38463 35.6069 14.4172 35.6069 24.6105H35.6396C35.6396 33.3219 40.7648 38.3022 40.7648 38.3022C40.7648 38.3022 38.2942 41.2308 32.7354 42.4616L32.727 42.4632C30.8902 40.7984 28.2262 39.5144 26.7769 38.9715L26.7786 38.971L26.721 38.3257L26.7521 38.2722C29.4868 36.5294 31.6087 33.5932 32.6317 30.0454C32.7569 30.1148 32.8984 30.1539 33.0481 30.1539C33.5602 30.1539 33.9746 29.6984 33.9746 29.1343V25.0201C33.9746 24.5375 33.6712 24.1339 33.2628 24.0275C33.2625 24.0219 33.2621 24.0163 33.2617 24.0108C20.3323 25.4482 15.6749 16.616 15.2926 16.6154C15.2926 16.6154 10.9988 19.6923 8.94664 23.3506C8.94664 23.3506 8.63386 24.0412 8.63234 24.0644C8.28101 24.2092 8.03041 24.5821 8.03041 25.0201V29.1343C8.03041 29.6984 8.44593 30.1539 8.95699 30.1539C9.07025 30.1539 9.17874 30.1316 9.27901 30.0908C10.3133 33.6403 12.4487 36.5733 15.1962 38.3046L15.2064 38.3257L15.1805 38.9372H15.1787Z" fill="#C86151"/>
<path fill-rule="evenodd" clip-rule="evenodd" d="M16.5841 26.9976C15.786 27.062 15.5626 25.8029 15.8031 24.9807C15.8483 24.8249 16.1125 24.1154 16.5802 24.1154C17.0474 24.1154 17.2537 24.5032 17.2824 24.5699C17.626 25.3715 17.4572 26.9268 16.5841 26.9976Z" fill="#3E3832"/>
<path fill-rule="evenodd" clip-rule="evenodd" d="M25.8405 26.9976C26.6386 27.062 26.862 25.8029 26.6215 24.9807C26.5763 24.8249 26.3121 24.1154 25.8444 24.1154C25.3772 24.1154 25.171 24.5032 25.1423 24.5699C24.7987 25.3715 24.9674 26.9268 25.8405 26.9976Z" fill="#3E3832"/>
<path d="M21.5082 28.2384C21.9854 28.1569 22.3114 28.2081 22.4281 28.3669C22.8687 28.9672 22.7278 29.6023 21.9719 30.1237C21.5744 30.3977 21.0273 30.4942 20.7377 30.3521C20.5961 30.2826 20.4305 30.3535 20.3678 30.5105C20.3051 30.6676 20.3691 30.8512 20.5108 30.9206C20.9894 31.1555 21.7255 31.0257 22.2681 30.6516C23.2953 29.9431 23.5304 28.8837 22.863 27.9743C22.5806 27.59 22.0806 27.5116 21.4228 27.6239C21.2698 27.65 21.1648 27.8087 21.1883 27.9784C21.2119 28.1481 21.3551 28.2645 21.5082 28.2384Z" fill="#3E3832"/>
<path d="M24.9596 32.3642C24.9316 32.4234 24.8673 32.5367 24.764 32.6859C24.5891 32.9386 24.3695 33.1919 24.1028 33.4281C23.308 34.1319 22.2736 34.5389 20.957 34.5017C19.6732 34.4654 18.6433 34.0647 17.8359 33.4185C17.5394 33.1813 17.2947 32.9272 17.0991 32.6739C16.9837 32.5246 16.9117 32.4113 16.8802 32.3523C16.8044 32.2104 16.6181 32.152 16.4641 32.2218C16.3101 32.2917 16.2468 32.4633 16.3225 32.6053C16.3682 32.6908 16.457 32.8304 16.5928 33.0062C16.8157 33.2948 17.0929 33.5826 17.4284 33.8511C18.3399 34.5805 19.5048 35.0338 20.9379 35.0743C22.4303 35.1165 23.6234 34.6471 24.5334 33.8412C24.8377 33.5717 25.0878 33.2832 25.2879 32.9941C25.4096 32.8182 25.4888 32.6787 25.5292 32.5934C25.5979 32.4484 25.526 32.2796 25.3687 32.2163C25.2115 32.153 25.0283 32.2192 24.9596 32.3642Z" fill="#3E3832"/>
<path fill-rule="evenodd" clip-rule="evenodd" d="M14.0424 7.24778C16.1245 6.15708 18.4797 5.53845 20.9769 5.53845C23.6252 5.53845 26.1153 6.23004 28.2872 7.44671V7.6871C32.2804 10.0165 34.9816 14.1966 35.1106 18.9937H35.9615C36.5652 18.9937 37.0591 19.4707 37.0591 20.0538V29.5496C37.0591 30.1327 36.5652 30.6098 35.9615 30.6098L35.4399 30.6098C34.4321 33.8706 29.6799 36.3544 23.9219 36.4349V36.7851C23.9219 37.1992 23.5713 37.5385 23.1426 37.5385H18.8118C18.3825 37.5385 18.032 37.1992 18.032 36.7851V35.1675C18.032 34.7534 18.3825 34.4141 18.8118 34.4141H23.1426C23.5713 34.4141 23.9219 34.7534 23.9219 35.1675V35.7215C28.61 35.2563 32.4624 33.2663 34.0788 30.6098H33.6031C32.9995 30.6098 32.5056 30.1327 32.5056 29.5496V20.0538C32.5056 19.4707 32.9995 18.9937 33.6031 18.9937H34.1534C33.5562 15.1239 31.3645 11.7952 28.2872 9.73176V9.75596C26.1425 8.38089 23.6452 7.5889 20.9769 7.5889C18.4629 7.5889 16.1006 8.29047 14.0424 9.52086V9.48888C10.7681 11.5282 8.4215 14.9682 7.80028 18.9937H8.39736C9.00101 18.9937 9.4949 19.4707 9.4949 20.0538V29.5496C9.4949 30.1327 9.00101 30.6098 8.39736 30.6098H6.03894C5.4353 30.6098 4.94141 30.1327 4.94141 29.5496V20.0538C4.94141 19.4707 5.4353 18.9937 6.03894 18.9937H6.84313C6.97605 14.0475 9.84341 9.75725 14.0424 7.47534V7.24778Z" fill="#3E3832"/>
</svg>
