<svg width="22" height="22" viewBox="0 0 22 22" fill="none" xmlns="http://www.w3.org/2000/svg">
<path fill-rule="evenodd" clip-rule="evenodd" d="M20.6222 15.7593L18.3737 13.5107C17.93 13.0671 17.3406 12.8223 16.7127 12.8223C16.0848 12.8223 15.4953 13.0671 15.0507 13.5107L14.4485 14.113C12.0927 12.1642 9.83033 9.90183 7.88608 7.54967L8.48833 6.94742C9.40408 6.03167 9.40408 4.54117 8.48833 3.62542L6.23883 1.37592C5.79517 0.93225 5.20575 0.6875 4.57783 0.6875C3.94992 0.6875 3.35958 0.93225 2.91592 1.37592L1.683 2.60975C0.543584 3.74825 0.363001 5.55317 1.25217 6.89975C4.85833 12.3512 9.64608 17.1389 15.0984 20.7451C15.6585 21.1154 16.3093 21.3116 16.9803 21.3116C17.8906 21.3116 18.7458 20.9568 19.3875 20.3142L20.6213 19.0804C21.065 18.6377 21.3097 18.0473 21.3097 17.4194C21.3097 16.7915 21.0659 16.2021 20.6222 15.7593Z" fill="#0067C5"/>
</svg>
