<svg width="34" height="43" viewBox="0 0 34 43" fill="none" xmlns="http://www.w3.org/2000/svg">
<path d="M18.1972 9.66292C20.8419 9.66292 22.9859 7.4998 22.9859 4.83146C22.9859 2.16312 20.8419 0 18.1972 0C15.5524 0 13.4084 2.16312 13.4084 4.83146C13.4084 7.4998 15.5524 9.66292 18.1972 9.66292Z" fill="#FFBD66"/>
<path d="M17.4789 40.5842C31.5505 40.5842 32.5634 35.3928 32.5634 28.9888C32.5634 22.5848 32.0502 16.4592 18.0962 16.4271C3.01171 16.3924 2.39441 22.5848 2.39441 28.9888C2.39441 35.3928 3.40734 40.5842 17.4789 40.5842Z" fill="#C86151"/>
<path d="M6.22532 28.5056C6.75427 28.5056 7.18307 27.8567 7.18307 27.0562C7.18307 26.2557 6.75427 25.6068 6.22532 25.6068C5.69638 25.6068 5.26758 26.2557 5.26758 27.0562C5.26758 27.8567 5.69638 28.5056 6.22532 28.5056Z" fill="#3E3832"/>
<path d="M0.957747 27.0562H3.83099C4.35993 27.0562 4.78873 27.4888 4.78873 28.0224V32.8539C4.78873 33.3876 4.35993 33.8202 3.83099 33.8202H0.957747C0.428798 33.8202 0 33.3876 0 32.8539V28.0224C0 27.4888 0.428798 27.0562 0.957747 27.0562Z" fill="#C86151"/>
<path d="M7.92641 14.3576L12.4507 19.809H6.22534L6.22534 14.9489C6.22534 14.431 6.65414 14.0112 7.18309 14.0112C7.47149 14.0112 7.74454 14.1385 7.92641 14.3576Z" fill="#C86151"/>
<path d="M8.52188 36.236L11.493 37.7166L9.07029 42.3119C8.74598 42.927 8.03322 43.1716 7.43446 42.8732C6.83571 42.5748 6.55287 41.834 6.78532 41.1731L8.52188 36.236Z" fill="#C86151"/>
<path d="M6.2253 33.8202C7.54767 33.8202 8.61966 32.7387 8.61966 31.4045C8.61966 30.0703 7.54767 28.9888 6.2253 28.9888C4.90293 28.9888 3.83093 30.0703 3.83093 31.4045C3.83093 32.7387 4.90293 33.8202 6.2253 33.8202Z" fill="#D6897D"/>
<path d="M26.9148 36.236L23.9437 37.7166L26.3664 42.3119C26.6907 42.927 27.4034 43.1716 28.0022 42.8732C28.6009 42.5748 28.8838 41.834 28.6513 41.1731L26.9148 36.236Z" fill="#C86151"/>
<path d="M32.8028 30.9213C33.464 30.9213 34 30.0561 34 28.9887C34 27.9214 33.464 27.0562 32.8028 27.0562C32.1416 27.0562 31.6056 27.9214 31.6056 28.9887C31.6056 30.0561 32.1416 30.9213 32.8028 30.9213Z" fill="#C86151"/>
<path d="M12.4507 20.1319C12.4507 19.6666 12.7858 19.2707 13.2469 19.2081C14.2991 19.065 16.2481 18.8427 18.1972 18.8427C20.1462 18.8427 22.0953 19.065 23.1475 19.2081C23.6085 19.2707 23.9436 19.6666 23.9436 20.1319C23.9436 20.7213 23.4143 21.1736 22.8297 21.0987C21.731 20.958 19.9641 20.7753 18.1972 20.7753C16.4303 20.7753 14.6634 20.958 13.5646 21.0987C12.98 21.1736 12.4507 20.7213 12.4507 20.1319Z" fill="#3E3832"/>
<path d="M14.9357 20.2922C13.9961 19.4264 13.4084 18.1913 13.4084 16.8203C13.4084 14.2016 15.5524 12.0787 18.1972 12.0787C20.8419 12.0787 22.9859 14.2016 22.9859 16.8203C22.9859 18.1913 22.3982 19.4264 21.4587 20.2922C20.3715 20.1903 19.2844 20.1394 18.1972 20.1394C17.11 20.1394 16.0228 20.1903 14.9357 20.2922Z" fill="#FFBD66"/>
<path fill-rule="evenodd" clip-rule="evenodd" d="M13.4321 17.3933C13.6724 14.9518 15.7141 13.045 18.1972 13.045C20.6803 13.045 22.722 14.9518 22.9623 17.3933C22.9779 17.2344 22.9859 17.0732 22.9859 16.9101C22.9859 14.2418 20.8419 12.0787 18.1972 12.0787C15.5524 12.0787 13.4084 14.2418 13.4084 16.9101C13.4084 17.0732 13.4165 17.2344 13.4321 17.3933Z" fill="#D87F0A"/>
<path fill-rule="evenodd" clip-rule="evenodd" d="M13.4321 5.31461C13.6724 2.87311 15.7141 0.966292 18.1972 0.966292C20.6803 0.966292 22.722 2.87311 22.9623 5.31461C22.9779 5.1557 22.9859 4.99452 22.9859 4.83146C22.9859 2.16312 20.8419 0 18.1972 0C15.5524 0 13.4084 2.16312 13.4084 4.83146C13.4084 4.99452 13.4165 5.1557 13.4321 5.31461Z" fill="#D87F0A"/>
</svg>
