<svg width="60" height="67" viewBox="0 0 60 67" fill="none" xmlns="http://www.w3.org/2000/svg">
<path d="M4.52832 0H48.6771L57.7359 9.03955V64.4068H4.52832V0Z" fill="#E7E9E9"/>
<path fill-rule="evenodd" clip-rule="evenodd" d="M56.5675 7.9096V63.4723H8.81094H8.06151C6.22528 63.4723 4.73547 61.9864 4.73547 60.1525C4.73547 58.3198 6.22528 56.8339 8.06151 56.8339H51.1755V0H6.42C2.87434 0 0 2.86893 0 6.40904V58.0904C0 63.8712 4.39698 66.6667 10.1887 66.6667H60V7.9096H56.5675Z" fill="#BA3A26"/>
<path fill-rule="evenodd" clip-rule="evenodd" d="M19.5204 15.8193H34.8193H36.2265V17.5198C36.2265 20.0719 35.7231 25.2769 34.8193 27.4677C33.2768 31.2174 30.5626 34.2882 27.1684 36.1583C23.7771 34.2882 21.063 31.2174 19.5204 27.4677C18.6167 25.2769 18.1133 20.0719 18.1133 17.5198V15.8193H19.5204ZM40.7548 41.808H13.585V46.3278H40.7548V41.808Z" fill="#FFD399"/>
</svg>